<svg xmlns="http://www.w3.org/2000/svg" width="2006" height="1218" viewBox="0 0 1003.0 609">
<g transform="translate(-344,-152)">
<line x1="450" y1="690" x2="450" y2="640" stroke="#5a1816" stroke-width="3.0" stroke-linecap="round"/>
<line x1="580" y1="690" x2="580" y2="640" stroke="#5a1816" stroke-width="3.0" stroke-linecap="round"/>
<line x1="700" y1="690" x2="700" y2="640" stroke="#5a1816" stroke-width="3.0" stroke-linecap="round"/>
<line x1="820" y1="690" x2="820" y2="640" stroke="#5a1816" stroke-width="3.0" stroke-linecap="round"/>
<line x1="940" y1="690" x2="940" y2="640" stroke="#5a1816" stroke-width="3.0" stroke-linecap="round"/>
<line x1="1060" y1="690" x2="1060" y2="640" stroke="#5a1816" stroke-width="3.0" stroke-linecap="round"/>
<line x1="1180" y1="690" x2="1180" y2="640" stroke="#5a1816" stroke-width="3.0" stroke-linecap="round"/>
<line x1="1270" y1="570" x2="1030" y2="570" stroke="#5a1816" stroke-width="3.0" stroke-linecap="round"/>
<line x1="1270" y1="530" x2="670" y2="530" stroke="#5a1816" stroke-width="3.0" stroke-linecap="round"/>
<line x1="1270" y1="490" x2="1150" y2="490" stroke="#5a1816" stroke-width="3.0" stroke-linecap="round"/>
<line x1="1270" y1="450" x2="1160" y2="450" stroke="#5a1816" stroke-width="3.0" stroke-linecap="round"/>
<line x1="1270" y1="410" x2="1170" y2="410" stroke="#5a1816" stroke-width="3.0" stroke-linecap="round"/>
<line x1="1270" y1="370" x2="1180" y2="370" stroke="#5a1816" stroke-width="3.0" stroke-linecap="round"/>
<line x1="1270" y1="330" x2="1190" y2="330" stroke="#5a1816" stroke-width="3.0" stroke-linecap="round"/>
<line x1="1270" y1="290" x2="720" y2="290" stroke="#5a1816" stroke-width="3.0" stroke-linecap="round"/>
<line x1="1270" y1="250" x2="1200" y2="250" stroke="#5a1816" stroke-width="3.0" stroke-linecap="round"/>
<line x1="1270" y1="210" x2="1210" y2="210" stroke="#5a1816" stroke-width="3.0" stroke-linecap="round"/>
<line x1="390" y1="570" x2="410" y2="570" stroke="#5a1816" stroke-width="3.0" stroke-linecap="round"/>
<line x1="390" y1="530" x2="550" y2="530" stroke="#5a1816" stroke-width="3.0" stroke-linecap="round"/>
<line x1="390" y1="490" x2="420" y2="490" stroke="#5a1816" stroke-width="3.0" stroke-linecap="round"/>
<line x1="390" y1="450" x2="430" y2="450" stroke="#5a1816" stroke-width="3.0" stroke-linecap="round"/>
<line x1="390" y1="410" x2="590" y2="410" stroke="#5a1816" stroke-width="3.0" stroke-linecap="round"/>
<line x1="390" y1="370" x2="440" y2="370" stroke="#5a1816" stroke-width="3.0" stroke-linecap="round"/>
<line x1="390" y1="330" x2="460" y2="330" stroke="#5a1816" stroke-width="3.0" stroke-linecap="round"/>
<line x1="390" y1="290" x2="470" y2="290" stroke="#5a1816" stroke-width="3.0" stroke-linecap="round"/>
<line x1="390" y1="250" x2="480" y2="250" stroke="#5a1816" stroke-width="3.0" stroke-linecap="round"/>
<line x1="390" y1="210" x2="490" y2="210" stroke="#5a1816" stroke-width="3.0" stroke-linecap="round"/>
<line x1="490" y1="610" x2="490" y2="570" stroke="#5a1816" stroke-width="3.0" stroke-linecap="round"/>
<line x1="480" y1="610" x2="480" y2="490" stroke="#5a1816" stroke-width="3.0" stroke-linecap="round"/>
<line x1="470" y1="610" x2="470" y2="450" stroke="#5a1816" stroke-width="3.0" stroke-linecap="round"/>
<line x1="460" y1="610" x2="460" y2="370" stroke="#5a1816" stroke-width="3.0" stroke-linecap="round"/>
<line x1="440" y1="610" x2="440" y2="330" stroke="#5a1816" stroke-width="3.0" stroke-linecap="round"/>
<line x1="430" y1="610" x2="430" y2="290" stroke="#5a1816" stroke-width="3.0" stroke-linecap="round"/>
<line x1="420" y1="610" x2="420" y2="250" stroke="#5a1816" stroke-width="3.0" stroke-linecap="round"/>
<line x1="410" y1="610" x2="410" y2="210" stroke="#5a1816" stroke-width="3.0" stroke-linecap="round"/>
<line x1="620" y1="610" x2="620" y2="570" stroke="#5a1816" stroke-width="3.0" stroke-linecap="round"/>
<line x1="610" y1="610" x2="610" y2="530" stroke="#5a1816" stroke-width="3.0" stroke-linecap="round"/>
<line x1="600" y1="610" x2="600" y2="490" stroke="#5a1816" stroke-width="3.0" stroke-linecap="round"/>
<line x1="590" y1="610" x2="590" y2="450" stroke="#5a1816" stroke-width="3.0" stroke-linecap="round"/>
<line x1="570" y1="610" x2="570" y2="410" stroke="#5a1816" stroke-width="3.0" stroke-linecap="round"/>
<line x1="560" y1="610" x2="560" y2="290" stroke="#5a1816" stroke-width="3.0" stroke-linecap="round"/>
<line x1="550" y1="610" x2="550" y2="250" stroke="#5a1816" stroke-width="3.0" stroke-linecap="round"/>
<line x1="540" y1="610" x2="540" y2="210" stroke="#5a1816" stroke-width="3.0" stroke-linecap="round"/>
<line x1="740" y1="610" x2="740" y2="570" stroke="#5a1816" stroke-width="3.0" stroke-linecap="round"/>
<line x1="730" y1="610" x2="730" y2="530" stroke="#5a1816" stroke-width="3.0" stroke-linecap="round"/>
<line x1="720" y1="610" x2="720" y2="450" stroke="#5a1816" stroke-width="3.0" stroke-linecap="round"/>
<line x1="710" y1="610" x2="710" y2="410" stroke="#5a1816" stroke-width="3.0" stroke-linecap="round"/>
<line x1="700" y1="610" x2="700" y2="370" stroke="#5a1816" stroke-width="3.0" stroke-linecap="round"/>
<line x1="690" y1="610" x2="690" y2="330" stroke="#5a1816" stroke-width="3.0" stroke-linecap="round"/>
<line x1="680" y1="610" x2="680" y2="290" stroke="#5a1816" stroke-width="3.0" stroke-linecap="round"/>
<line x1="670" y1="610" x2="670" y2="250" stroke="#5a1816" stroke-width="3.0" stroke-linecap="round"/>
<line x1="660" y1="610" x2="660" y2="210" stroke="#5a1816" stroke-width="3.0" stroke-linecap="round"/>
<line x1="850" y1="610" x2="850" y2="570" stroke="#5a1816" stroke-width="3.0" stroke-linecap="round"/>
<line x1="840" y1="610" x2="840" y2="490" stroke="#5a1816" stroke-width="3.0" stroke-linecap="round"/>
<line x1="830" y1="610" x2="830" y2="450" stroke="#5a1816" stroke-width="3.0" stroke-linecap="round"/>
<line x1="820" y1="610" x2="820" y2="370" stroke="#5a1816" stroke-width="3.0" stroke-linecap="round"/>
<line x1="810" y1="610" x2="810" y2="330" stroke="#5a1816" stroke-width="3.0" stroke-linecap="round"/>
<line x1="800" y1="610" x2="800" y2="250" stroke="#5a1816" stroke-width="3.0" stroke-linecap="round"/>
<line x1="790" y1="610" x2="790" y2="210" stroke="#5a1816" stroke-width="3.0" stroke-linecap="round"/>
<line x1="960" y1="610" x2="960" y2="570" stroke="#5a1816" stroke-width="3.0" stroke-linecap="round"/>
<line x1="950" y1="610" x2="950" y2="490" stroke="#5a1816" stroke-width="3.0" stroke-linecap="round"/>
<line x1="930" y1="610" x2="930" y2="330" stroke="#5a1816" stroke-width="3.0" stroke-linecap="round"/>
<line x1="920" y1="610" x2="920" y2="250" stroke="#5a1816" stroke-width="3.0" stroke-linecap="round"/>
<line x1="1090" y1="610" x2="1090" y2="570" stroke="#5a1816" stroke-width="3.0" stroke-linecap="round"/>
<line x1="1080" y1="610" x2="1080" y2="410" stroke="#5a1816" stroke-width="3.0" stroke-linecap="round"/>
<line x1="1070" y1="610" x2="1070" y2="370" stroke="#5a1816" stroke-width="3.0" stroke-linecap="round"/>
<line x1="1050" y1="610" x2="1050" y2="330" stroke="#5a1816" stroke-width="3.0" stroke-linecap="round"/>
<line x1="1040" y1="610" x2="1040" y2="250" stroke="#5a1816" stroke-width="3.0" stroke-linecap="round"/>
<line x1="1030" y1="610" x2="1030" y2="210" stroke="#5a1816" stroke-width="3.0" stroke-linecap="round"/>
<line x1="1210" y1="610" x2="1210" y2="490" stroke="#5a1816" stroke-width="3.0" stroke-linecap="round"/>
<line x1="1200" y1="610" x2="1200" y2="450" stroke="#5a1816" stroke-width="3.0" stroke-linecap="round"/>
<line x1="1190" y1="610" x2="1190" y2="410" stroke="#5a1816" stroke-width="3.0" stroke-linecap="round"/>
<line x1="1180" y1="610" x2="1180" y2="370" stroke="#5a1816" stroke-width="3.0" stroke-linecap="round"/>
<line x1="1170" y1="610" x2="1170" y2="330" stroke="#5a1816" stroke-width="3.0" stroke-linecap="round"/>
<line x1="1160" y1="610" x2="1160" y2="250" stroke="#5a1816" stroke-width="3.0" stroke-linecap="round"/>
<line x1="1150" y1="610" x2="1150" y2="210" stroke="#5a1816" stroke-width="3.0" stroke-linecap="round"/>
<line x1="410" y1="570" x2="540" y2="570" stroke="#5a1816" stroke-width="3.0" stroke-linecap="round"/>
<line x1="420" y1="490" x2="560" y2="490" stroke="#5a1816" stroke-width="3.0" stroke-linecap="round"/>
<line x1="430" y1="450" x2="570" y2="450" stroke="#5a1816" stroke-width="3.0" stroke-linecap="round"/>
<line x1="440" y1="370" x2="700" y2="370" stroke="#5a1816" stroke-width="3.0" stroke-linecap="round"/>
<line x1="460" y1="330" x2="710" y2="330" stroke="#5a1816" stroke-width="3.0" stroke-linecap="round"/>
<line x1="470" y1="290" x2="600" y2="290" stroke="#5a1816" stroke-width="3.0" stroke-linecap="round"/>
<line x1="480" y1="250" x2="610" y2="250" stroke="#5a1816" stroke-width="3.0" stroke-linecap="round"/>
<line x1="490" y1="210" x2="620" y2="210" stroke="#5a1816" stroke-width="3.0" stroke-linecap="round"/>
<line x1="540" y1="570" x2="660" y2="570" stroke="#5a1816" stroke-width="3.0" stroke-linecap="round"/>
<line x1="550" y1="530" x2="670" y2="530" stroke="#5a1816" stroke-width="3.0" stroke-linecap="round"/>
<line x1="560" y1="490" x2="800" y2="490" stroke="#5a1816" stroke-width="3.0" stroke-linecap="round"/>
<line x1="570" y1="450" x2="680" y2="450" stroke="#5a1816" stroke-width="3.0" stroke-linecap="round"/>
<line x1="600" y1="290" x2="720" y2="290" stroke="#5a1816" stroke-width="3.0" stroke-linecap="round"/>
<line x1="610" y1="250" x2="730" y2="250" stroke="#5a1816" stroke-width="3.0" stroke-linecap="round"/>
<line x1="590" y1="410" x2="690" y2="410" stroke="#5a1816" stroke-width="3.0" stroke-linecap="round"/>
<line x1="620" y1="210" x2="740" y2="210" stroke="#5a1816" stroke-width="3.0" stroke-linecap="round"/>
<line x1="660" y1="570" x2="790" y2="570" stroke="#5a1816" stroke-width="3.0" stroke-linecap="round"/>
<line x1="680" y1="450" x2="810" y2="450" stroke="#5a1816" stroke-width="3.0" stroke-linecap="round"/>
<line x1="690" y1="410" x2="1040" y2="410" stroke="#5a1816" stroke-width="3.0" stroke-linecap="round"/>
<line x1="700" y1="370" x2="820" y2="370" stroke="#5a1816" stroke-width="3.0" stroke-linecap="round"/>
<line x1="710" y1="330" x2="830" y2="330" stroke="#5a1816" stroke-width="3.0" stroke-linecap="round"/>
<line x1="730" y1="250" x2="840" y2="250" stroke="#5a1816" stroke-width="3.0" stroke-linecap="round"/>
<line x1="740" y1="210" x2="850" y2="210" stroke="#5a1816" stroke-width="3.0" stroke-linecap="round"/>
<line x1="790" y1="570" x2="920" y2="570" stroke="#5a1816" stroke-width="3.0" stroke-linecap="round"/>
<line x1="800" y1="490" x2="930" y2="490" stroke="#5a1816" stroke-width="3.0" stroke-linecap="round"/>
<line x1="810" y1="450" x2="1160" y2="450" stroke="#5a1816" stroke-width="3.0" stroke-linecap="round"/>
<line x1="820" y1="370" x2="1050" y2="370" stroke="#5a1816" stroke-width="3.0" stroke-linecap="round"/>
<line x1="830" y1="330" x2="950" y2="330" stroke="#5a1816" stroke-width="3.0" stroke-linecap="round"/>
<line x1="840" y1="250" x2="960" y2="250" stroke="#5a1816" stroke-width="3.0" stroke-linecap="round"/>
<line x1="850" y1="210" x2="1090" y2="210" stroke="#5a1816" stroke-width="3.0" stroke-linecap="round"/>
<line x1="920" y1="570" x2="1030" y2="570" stroke="#5a1816" stroke-width="3.0" stroke-linecap="round"/>
<line x1="930" y1="490" x2="1150" y2="490" stroke="#5a1816" stroke-width="3.0" stroke-linecap="round"/>
<line x1="950" y1="330" x2="1070" y2="330" stroke="#5a1816" stroke-width="3.0" stroke-linecap="round"/>
<line x1="960" y1="250" x2="1080" y2="250" stroke="#5a1816" stroke-width="3.0" stroke-linecap="round"/>
<line x1="1040" y1="410" x2="1170" y2="410" stroke="#5a1816" stroke-width="3.0" stroke-linecap="round"/>
<line x1="1050" y1="370" x2="1180" y2="370" stroke="#5a1816" stroke-width="3.0" stroke-linecap="round"/>
<line x1="1070" y1="330" x2="1190" y2="330" stroke="#5a1816" stroke-width="3.0" stroke-linecap="round"/>
<line x1="1080" y1="250" x2="1200" y2="250" stroke="#5a1816" stroke-width="3.0" stroke-linecap="round"/>
<line x1="1090" y1="210" x2="1210" y2="210" stroke="#5a1816" stroke-width="3.0" stroke-linecap="round"/>
<circle cx="450" cy="690" r="3.1500000000000004" fill="#5a1816"/>
<circle cx="580" cy="690" r="3.1500000000000004" fill="#5a1816"/>
<circle cx="700" cy="690" r="3.1500000000000004" fill="#5a1816"/>
<circle cx="820" cy="690" r="3.1500000000000004" fill="#5a1816"/>
<circle cx="940" cy="690" r="3.1500000000000004" fill="#5a1816"/>
<circle cx="1060" cy="690" r="3.1500000000000004" fill="#5a1816"/>
<circle cx="1180" cy="690" r="3.1500000000000004" fill="#5a1816"/>
<circle cx="1270" cy="570" r="3.1500000000000004" fill="#5a1816"/>
<circle cx="1270" cy="530" r="3.1500000000000004" fill="#5a1816"/>
<circle cx="1270" cy="490" r="3.1500000000000004" fill="#5a1816"/>
<circle cx="1270" cy="450" r="3.1500000000000004" fill="#5a1816"/>
<circle cx="1270" cy="410" r="3.1500000000000004" fill="#5a1816"/>
<circle cx="1270" cy="370" r="3.1500000000000004" fill="#5a1816"/>
<circle cx="1270" cy="330" r="3.1500000000000004" fill="#5a1816"/>
<circle cx="1270" cy="290" r="3.1500000000000004" fill="#5a1816"/>
<circle cx="1270" cy="250" r="3.1500000000000004" fill="#5a1816"/>
<circle cx="1270" cy="210" r="3.1500000000000004" fill="#5a1816"/>
<circle cx="390" cy="570" r="3.1500000000000004" fill="#5a1816"/>
<circle cx="390" cy="530" r="3.1500000000000004" fill="#5a1816"/>
<circle cx="390" cy="490" r="3.1500000000000004" fill="#5a1816"/>
<circle cx="390" cy="450" r="3.1500000000000004" fill="#5a1816"/>
<circle cx="390" cy="410" r="3.1500000000000004" fill="#5a1816"/>
<circle cx="390" cy="370" r="3.1500000000000004" fill="#5a1816"/>
<circle cx="390" cy="330" r="3.1500000000000004" fill="#5a1816"/>
<circle cx="390" cy="290" r="3.1500000000000004" fill="#5a1816"/>
<circle cx="390" cy="250" r="3.1500000000000004" fill="#5a1816"/>
<circle cx="390" cy="210" r="3.1500000000000004" fill="#5a1816"/>
<circle cx="700" cy="370" r="3.1500000000000004" fill="#5a1816"/>
<circle cx="820" cy="370" r="3.1500000000000004" fill="#5a1816"/>
<circle cx="1180" cy="370" r="3.1500000000000004" fill="#5a1816"/>
<circle cx="490" cy="570" r="3.1500000000000004" fill="#5a1816"/>
<circle cx="480" cy="490" r="3.1500000000000004" fill="#5a1816"/>
<circle cx="470" cy="450" r="3.1500000000000004" fill="#5a1816"/>
<circle cx="460" cy="370" r="3.1500000000000004" fill="#5a1816"/>
<circle cx="440" cy="330" r="3.1500000000000004" fill="#5a1816"/>
<circle cx="430" cy="290" r="3.1500000000000004" fill="#5a1816"/>
<circle cx="420" cy="250" r="3.1500000000000004" fill="#5a1816"/>
<circle cx="410" cy="210" r="3.1500000000000004" fill="#5a1816"/>
<circle cx="620" cy="570" r="3.1500000000000004" fill="#5a1816"/>
<circle cx="610" cy="530" r="3.1500000000000004" fill="#5a1816"/>
<circle cx="600" cy="490" r="3.1500000000000004" fill="#5a1816"/>
<circle cx="590" cy="450" r="3.1500000000000004" fill="#5a1816"/>
<circle cx="570" cy="410" r="3.1500000000000004" fill="#5a1816"/>
<circle cx="560" cy="290" r="3.1500000000000004" fill="#5a1816"/>
<circle cx="550" cy="250" r="3.1500000000000004" fill="#5a1816"/>
<circle cx="540" cy="210" r="3.1500000000000004" fill="#5a1816"/>
<circle cx="740" cy="570" r="3.1500000000000004" fill="#5a1816"/>
<circle cx="730" cy="530" r="3.1500000000000004" fill="#5a1816"/>
<circle cx="720" cy="450" r="3.1500000000000004" fill="#5a1816"/>
<circle cx="710" cy="410" r="3.1500000000000004" fill="#5a1816"/>
<circle cx="690" cy="330" r="3.1500000000000004" fill="#5a1816"/>
<circle cx="680" cy="290" r="3.1500000000000004" fill="#5a1816"/>
<circle cx="670" cy="250" r="3.1500000000000004" fill="#5a1816"/>
<circle cx="660" cy="210" r="3.1500000000000004" fill="#5a1816"/>
<circle cx="850" cy="570" r="3.1500000000000004" fill="#5a1816"/>
<circle cx="840" cy="490" r="3.1500000000000004" fill="#5a1816"/>
<circle cx="830" cy="450" r="3.1500000000000004" fill="#5a1816"/>
<circle cx="810" cy="330" r="3.1500000000000004" fill="#5a1816"/>
<circle cx="800" cy="250" r="3.1500000000000004" fill="#5a1816"/>
<circle cx="790" cy="210" r="3.1500000000000004" fill="#5a1816"/>
<circle cx="960" cy="570" r="3.1500000000000004" fill="#5a1816"/>
<circle cx="950" cy="490" r="3.1500000000000004" fill="#5a1816"/>
<circle cx="930" cy="330" r="3.1500000000000004" fill="#5a1816"/>
<circle cx="920" cy="250" r="3.1500000000000004" fill="#5a1816"/>
<circle cx="1090" cy="570" r="3.1500000000000004" fill="#5a1816"/>
<circle cx="1080" cy="410" r="3.1500000000000004" fill="#5a1816"/>
<circle cx="1070" cy="370" r="3.1500000000000004" fill="#5a1816"/>
<circle cx="1050" cy="330" r="3.1500000000000004" fill="#5a1816"/>
<circle cx="1040" cy="250" r="3.1500000000000004" fill="#5a1816"/>
<circle cx="1030" cy="210" r="3.1500000000000004" fill="#5a1816"/>
<circle cx="1210" cy="490" r="3.1500000000000004" fill="#5a1816"/>
<circle cx="1200" cy="450" r="3.1500000000000004" fill="#5a1816"/>
<circle cx="1190" cy="410" r="3.1500000000000004" fill="#5a1816"/>
<circle cx="1170" cy="330" r="3.1500000000000004" fill="#5a1816"/>
<circle cx="1160" cy="250" r="3.1500000000000004" fill="#5a1816"/>
<circle cx="1150" cy="210" r="3.1500000000000004" fill="#5a1816"/>
<rect x="1270" y="560" width="20" height="20" fill="#ffffff" stroke="#30231e" stroke-width="3.2"/><text x="1280" y="575" font-family="Fira Code, ui-monospace, monospace" font-size="14" font-weight="600" text-anchor="middle" fill="#30231e">0</text>
<text x="1302" y="575" font-family="ui-monospace,monospace" font-size="14" text-anchor="start" fill="#30231e">L0</text>
<rect x="1270" y="520" width="20" height="20" fill="#ffffff" stroke="#30231e" stroke-width="3.2"/><text x="1280" y="535" font-family="Fira Code, ui-monospace, monospace" font-size="14" font-weight="600" text-anchor="middle" fill="#30231e">0</text>
<text x="1302" y="535" font-family="ui-monospace,monospace" font-size="14" text-anchor="start" fill="#30231e">L1</text>
<rect x="1270" y="480" width="20" height="20" fill="#ffffff" stroke="#30231e" stroke-width="3.2"/><text x="1280" y="495" font-family="Fira Code, ui-monospace, monospace" font-size="14" font-weight="600" text-anchor="middle" fill="#30231e">0</text>
<text x="1302" y="495" font-family="ui-monospace,monospace" font-size="14" text-anchor="start" fill="#30231e">L2</text>
<rect x="1270" y="440" width="20" height="20" fill="#ffffff" stroke="#30231e" stroke-width="3.2"/><text x="1280" y="455" font-family="Fira Code, ui-monospace, monospace" font-size="14" font-weight="600" text-anchor="middle" fill="#30231e">0</text>
<text x="1302" y="455" font-family="ui-monospace,monospace" font-size="14" text-anchor="start" fill="#30231e">L3</text>
<rect x="1270" y="400" width="20" height="20" fill="#ffffff" stroke="#30231e" stroke-width="3.2"/><text x="1280" y="415" font-family="Fira Code, ui-monospace, monospace" font-size="14" font-weight="600" text-anchor="middle" fill="#30231e">0</text>
<text x="1302" y="415" font-family="ui-monospace,monospace" font-size="14" text-anchor="start" fill="#30231e">L4</text>
<rect x="1270" y="360" width="20" height="20" fill="#ffffff" stroke="#30231e" stroke-width="3.2"/><text x="1280" y="375" font-family="Fira Code, ui-monospace, monospace" font-size="14" font-weight="600" text-anchor="middle" fill="#30231e">0</text>
<text x="1302" y="375" font-family="ui-monospace,monospace" font-size="14" text-anchor="start" fill="#30231e">L5</text>
<rect x="1270" y="320" width="20" height="20" fill="#ffffff" stroke="#30231e" stroke-width="3.2"/><text x="1280" y="335" font-family="Fira Code, ui-monospace, monospace" font-size="14" font-weight="600" text-anchor="middle" fill="#30231e">0</text>
<text x="1302" y="335" font-family="ui-monospace,monospace" font-size="14" text-anchor="start" fill="#30231e">L6</text>
<rect x="1270" y="280" width="20" height="20" fill="#ffffff" stroke="#30231e" stroke-width="3.2"/><text x="1280" y="295" font-family="Fira Code, ui-monospace, monospace" font-size="14" font-weight="600" text-anchor="middle" fill="#30231e">0</text>
<text x="1302" y="295" font-family="ui-monospace,monospace" font-size="14" text-anchor="start" fill="#30231e">L7</text>
<rect x="1270" y="240" width="20" height="20" fill="#ffffff" stroke="#30231e" stroke-width="3.2"/><text x="1280" y="255" font-family="Fira Code, ui-monospace, monospace" font-size="14" font-weight="600" text-anchor="middle" fill="#30231e">0</text>
<text x="1302" y="255" font-family="ui-monospace,monospace" font-size="14" text-anchor="start" fill="#30231e">L8</text>
<rect x="1270" y="200" width="20" height="20" fill="#ffffff" stroke="#30231e" stroke-width="3.2"/><text x="1280" y="215" font-family="Fira Code, ui-monospace, monospace" font-size="14" font-weight="600" text-anchor="middle" fill="#30231e">0</text>
<text x="1302" y="215" font-family="ui-monospace,monospace" font-size="14" text-anchor="start" fill="#30231e">L9</text>
<rect x="440" y="690" width="20" height="20" fill="#ffffff" stroke="#30231e" stroke-width="3.2"/><text x="450" y="705" font-family="Fira Code, ui-monospace, monospace" font-size="14" font-weight="600" text-anchor="middle" fill="#30231e">0</text>
<text x="450" y="728" font-family="ui-monospace,monospace" font-size="14" text-anchor="middle" fill="#30231e">a</text>
<rect x="570" y="690" width="20" height="20" fill="#ffffff" stroke="#30231e" stroke-width="3.2"/><text x="580" y="705" font-family="Fira Code, ui-monospace, monospace" font-size="14" font-weight="600" text-anchor="middle" fill="#30231e">0</text>
<text x="580" y="728" font-family="ui-monospace,monospace" font-size="14" text-anchor="middle" fill="#30231e">b</text>
<rect x="690" y="690" width="20" height="20" fill="#ffffff" stroke="#30231e" stroke-width="3.2"/><text x="700" y="705" font-family="Fira Code, ui-monospace, monospace" font-size="14" font-weight="600" text-anchor="middle" fill="#30231e">0</text>
<text x="700" y="728" font-family="ui-monospace,monospace" font-size="14" text-anchor="middle" fill="#30231e">c</text>
<rect x="810" y="690" width="20" height="20" fill="#ffffff" stroke="#30231e" stroke-width="3.2"/><text x="820" y="705" font-family="Fira Code, ui-monospace, monospace" font-size="14" font-weight="600" text-anchor="middle" fill="#30231e">0</text>
<text x="820" y="728" font-family="ui-monospace,monospace" font-size="14" text-anchor="middle" fill="#30231e">d</text>
<rect x="930" y="690" width="20" height="20" fill="#ffffff" stroke="#30231e" stroke-width="3.2"/><text x="940" y="705" font-family="Fira Code, ui-monospace, monospace" font-size="14" font-weight="600" text-anchor="middle" fill="#30231e">0</text>
<text x="940" y="728" font-family="ui-monospace,monospace" font-size="14" text-anchor="middle" fill="#30231e">e</text>
<rect x="1050" y="690" width="20" height="20" fill="#ffffff" stroke="#30231e" stroke-width="3.2"/><text x="1060" y="705" font-family="Fira Code, ui-monospace, monospace" font-size="14" font-weight="600" text-anchor="middle" fill="#30231e">0</text>
<text x="1060" y="728" font-family="ui-monospace,monospace" font-size="14" text-anchor="middle" fill="#30231e">f</text>
<rect x="1170" y="690" width="20" height="20" fill="#ffffff" stroke="#30231e" stroke-width="3.2"/><text x="1180" y="705" font-family="Fira Code, ui-monospace, monospace" font-size="14" font-weight="600" text-anchor="middle" fill="#30231e">0</text>
<text x="1180" y="728" font-family="ui-monospace,monospace" font-size="14" text-anchor="middle" fill="#30231e">g</text>
<line x1="490" y1="610" x2="480" y2="610" stroke="#5a1816" stroke-width="3.0" stroke-linecap="round"/>
<line x1="480" y1="610" x2="470" y2="610" stroke="#5a1816" stroke-width="3.0" stroke-linecap="round"/>
<line x1="470" y1="610" x2="460" y2="610" stroke="#5a1816" stroke-width="3.0" stroke-linecap="round"/>
<line x1="460" y1="610" x2="450" y2="610" stroke="#5a1816" stroke-width="3.0" stroke-linecap="round"/>
<line x1="440" y1="610" x2="450" y2="610" stroke="#5a1816" stroke-width="3.0" stroke-linecap="round"/>
<line x1="430" y1="610" x2="440" y2="610" stroke="#5a1816" stroke-width="3.0" stroke-linecap="round"/>
<line x1="420" y1="610" x2="430" y2="610" stroke="#5a1816" stroke-width="3.0" stroke-linecap="round"/>
<line x1="410" y1="610" x2="420" y2="610" stroke="#5a1816" stroke-width="3.0" stroke-linecap="round"/>
<line x1="450" y1="640" x2="450" y2="630" stroke="#5a1816" stroke-width="3.0" stroke-linecap="round"/>
<g transform="translate(450,620) rotate(90)"><path d="M -16 -19 Q -3 0 -16 19 Q 6 18 19 0 Q 6 -18 -16 -19 Z" fill="#ccdbe5" stroke="#30231e" stroke-width="3.2" stroke-linecap="square" stroke-linejoin="miter"/></g>
<line x1="620" y1="610" x2="610" y2="610" stroke="#5a1816" stroke-width="3.0" stroke-linecap="round"/>
<line x1="610" y1="610" x2="600" y2="610" stroke="#5a1816" stroke-width="3.0" stroke-linecap="round"/>
<line x1="600" y1="610" x2="590" y2="610" stroke="#5a1816" stroke-width="3.0" stroke-linecap="round"/>
<line x1="590" y1="610" x2="580" y2="610" stroke="#5a1816" stroke-width="3.0" stroke-linecap="round"/>
<line x1="570" y1="610" x2="580" y2="610" stroke="#5a1816" stroke-width="3.0" stroke-linecap="round"/>
<line x1="560" y1="610" x2="570" y2="610" stroke="#5a1816" stroke-width="3.0" stroke-linecap="round"/>
<line x1="550" y1="610" x2="560" y2="610" stroke="#5a1816" stroke-width="3.0" stroke-linecap="round"/>
<line x1="540" y1="610" x2="550" y2="610" stroke="#5a1816" stroke-width="3.0" stroke-linecap="round"/>
<line x1="580" y1="640" x2="580" y2="630" stroke="#5a1816" stroke-width="3.0" stroke-linecap="round"/>
<g transform="translate(580,620) rotate(90)"><path d="M -16 -19 Q -3 0 -16 19 Q 6 18 19 0 Q 6 -18 -16 -19 Z" fill="#ccdbe5" stroke="#30231e" stroke-width="3.2" stroke-linecap="square" stroke-linejoin="miter"/></g>
<line x1="740" y1="610" x2="730" y2="610" stroke="#5a1816" stroke-width="3.0" stroke-linecap="round"/>
<line x1="730" y1="610" x2="720" y2="610" stroke="#5a1816" stroke-width="3.0" stroke-linecap="round"/>
<line x1="720" y1="610" x2="710" y2="610" stroke="#5a1816" stroke-width="3.0" stroke-linecap="round"/>
<line x1="710" y1="610" x2="700" y2="610" stroke="#5a1816" stroke-width="3.0" stroke-linecap="round"/>
<line x1="700" y1="610" x2="700" y2="620" stroke="#5a1816" stroke-width="3.0" stroke-linecap="round"/>
<line x1="690" y1="610" x2="700" y2="610" stroke="#5a1816" stroke-width="3.0" stroke-linecap="round"/>
<line x1="680" y1="610" x2="690" y2="610" stroke="#5a1816" stroke-width="3.0" stroke-linecap="round"/>
<line x1="670" y1="610" x2="680" y2="610" stroke="#5a1816" stroke-width="3.0" stroke-linecap="round"/>
<line x1="660" y1="610" x2="670" y2="610" stroke="#5a1816" stroke-width="3.0" stroke-linecap="round"/>
<line x1="700" y1="640" x2="700" y2="630" stroke="#5a1816" stroke-width="3.0" stroke-linecap="round"/>
<g transform="translate(700,620) rotate(90)"><path d="M -16 -19 Q -3 0 -16 19 Q 6 18 19 0 Q 6 -18 -16 -19 Z" fill="#ccdbe5" stroke="#30231e" stroke-width="3.2" stroke-linecap="square" stroke-linejoin="miter"/></g>
<line x1="850" y1="610" x2="840" y2="610" stroke="#5a1816" stroke-width="3.0" stroke-linecap="round"/>
<line x1="840" y1="610" x2="830" y2="610" stroke="#5a1816" stroke-width="3.0" stroke-linecap="round"/>
<line x1="830" y1="610" x2="820" y2="610" stroke="#5a1816" stroke-width="3.0" stroke-linecap="round"/>
<line x1="820" y1="610" x2="820" y2="620" stroke="#5a1816" stroke-width="3.0" stroke-linecap="round"/>
<line x1="810" y1="610" x2="820" y2="610" stroke="#5a1816" stroke-width="3.0" stroke-linecap="round"/>
<line x1="800" y1="610" x2="810" y2="610" stroke="#5a1816" stroke-width="3.0" stroke-linecap="round"/>
<line x1="790" y1="610" x2="800" y2="610" stroke="#5a1816" stroke-width="3.0" stroke-linecap="round"/>
<line x1="820" y1="640" x2="820" y2="630" stroke="#5a1816" stroke-width="3.0" stroke-linecap="round"/>
<g transform="translate(820,620) rotate(90)"><path d="M -16 -19 Q -3 0 -16 19 Q 6 18 19 0 Q 6 -18 -16 -19 Z" fill="#ccdbe5" stroke="#30231e" stroke-width="3.2" stroke-linecap="square" stroke-linejoin="miter"/></g>
<line x1="960" y1="610" x2="950" y2="610" stroke="#5a1816" stroke-width="3.0" stroke-linecap="round"/>
<line x1="950" y1="610" x2="940" y2="610" stroke="#5a1816" stroke-width="3.0" stroke-linecap="round"/>
<line x1="930" y1="610" x2="940" y2="610" stroke="#5a1816" stroke-width="3.0" stroke-linecap="round"/>
<line x1="920" y1="610" x2="930" y2="610" stroke="#5a1816" stroke-width="3.0" stroke-linecap="round"/>
<line x1="940" y1="640" x2="940" y2="630" stroke="#5a1816" stroke-width="3.0" stroke-linecap="round"/>
<g transform="translate(940,620) rotate(90)"><path d="M -16 -19 Q -3 0 -16 19 Q 6 18 19 0 Q 6 -18 -16 -19 Z" fill="#ccdbe5" stroke="#30231e" stroke-width="3.2" stroke-linecap="square" stroke-linejoin="miter"/></g>
<line x1="1090" y1="610" x2="1080" y2="610" stroke="#5a1816" stroke-width="3.0" stroke-linecap="round"/>
<line x1="1080" y1="610" x2="1070" y2="610" stroke="#5a1816" stroke-width="3.0" stroke-linecap="round"/>
<line x1="1070" y1="610" x2="1060" y2="610" stroke="#5a1816" stroke-width="3.0" stroke-linecap="round"/>
<line x1="1050" y1="610" x2="1060" y2="610" stroke="#5a1816" stroke-width="3.0" stroke-linecap="round"/>
<line x1="1040" y1="610" x2="1050" y2="610" stroke="#5a1816" stroke-width="3.0" stroke-linecap="round"/>
<line x1="1030" y1="610" x2="1040" y2="610" stroke="#5a1816" stroke-width="3.0" stroke-linecap="round"/>
<line x1="1060" y1="640" x2="1060" y2="630" stroke="#5a1816" stroke-width="3.0" stroke-linecap="round"/>
<g transform="translate(1060,620) rotate(90)"><path d="M -16 -19 Q -3 0 -16 19 Q 6 18 19 0 Q 6 -18 -16 -19 Z" fill="#ccdbe5" stroke="#30231e" stroke-width="3.2" stroke-linecap="square" stroke-linejoin="miter"/></g>
<line x1="1210" y1="610" x2="1200" y2="610" stroke="#5a1816" stroke-width="3.0" stroke-linecap="round"/>
<line x1="1200" y1="610" x2="1190" y2="610" stroke="#5a1816" stroke-width="3.0" stroke-linecap="round"/>
<line x1="1190" y1="610" x2="1180" y2="610" stroke="#5a1816" stroke-width="3.0" stroke-linecap="round"/>
<line x1="1180" y1="610" x2="1180" y2="620" stroke="#5a1816" stroke-width="3.0" stroke-linecap="round"/>
<line x1="1170" y1="610" x2="1180" y2="610" stroke="#5a1816" stroke-width="3.0" stroke-linecap="round"/>
<line x1="1160" y1="610" x2="1170" y2="610" stroke="#5a1816" stroke-width="3.0" stroke-linecap="round"/>
<line x1="1150" y1="610" x2="1160" y2="610" stroke="#5a1816" stroke-width="3.0" stroke-linecap="round"/>
<line x1="1180" y1="640" x2="1180" y2="630" stroke="#5a1816" stroke-width="3.0" stroke-linecap="round"/>
<g transform="translate(1180,620) rotate(90)"><path d="M -16 -19 Q -3 0 -16 19 Q 6 18 19 0 Q 6 -18 -16 -19 Z" fill="#ccdbe5" stroke="#30231e" stroke-width="3.2" stroke-linecap="square" stroke-linejoin="miter"/></g>
</g>
</svg>
