<svg xmlns="http://www.w3.org/2000/svg" width="890" height="1454" viewBox="0 0 445.0 727">
<g transform="translate(-583.0,-74)">
<line x1="930" y1="730" x2="930" y2="700" stroke="#5a1816" stroke-width="3.0" stroke-linecap="round"/>
<line x1="970" y1="730" x2="970" y2="700" stroke="#5a1816" stroke-width="3.0" stroke-linecap="round"/>
<line x1="930" y1="120" x2="930" y2="160" stroke="#5a1816" stroke-width="3.0" stroke-linecap="round"/>
<line x1="970" y1="120" x2="970" y2="200" stroke="#5a1816" stroke-width="3.0" stroke-linecap="round"/>
<line x1="970" y1="700" x2="950" y2="700" stroke="#5a1816" stroke-width="3.0" stroke-linecap="round"/>
<line x1="970" y1="700" x2="970" y2="600" stroke="#5a1816" stroke-width="3.0" stroke-linecap="round"/>
<line x1="950" y1="700" x2="950" y2="680" stroke="#5a1816" stroke-width="3.0" stroke-linecap="round"/>
<line x1="950" y1="650" x2="950" y2="550" stroke="#f0392a" stroke-width="3.0" stroke-linecap="round"/>
<line x1="930" y1="700" x2="910" y2="700" stroke="#5a1816" stroke-width="3.0" stroke-linecap="round"/>
<line x1="930" y1="700" x2="930" y2="610" stroke="#5a1816" stroke-width="3.0" stroke-linecap="round"/>
<line x1="910" y1="700" x2="910" y2="680" stroke="#5a1816" stroke-width="3.0" stroke-linecap="round"/>
<line x1="910" y1="120" x2="910" y2="260" stroke="#f0392a" stroke-width="3.0" stroke-linecap="round"/>
<line x1="950" y1="120" x2="950" y2="150" stroke="#f0392a" stroke-width="3.0" stroke-linecap="round"/>
<line x1="850" y1="730" x2="850" y2="700" stroke="#f0392a" stroke-width="3.0" stroke-linecap="round"/>
<line x1="890" y1="730" x2="890" y2="700" stroke="#f0392a" stroke-width="3.0" stroke-linecap="round"/>
<line x1="850" y1="120" x2="850" y2="290" stroke="#f0392a" stroke-width="3.0" stroke-linecap="round"/>
<line x1="890" y1="120" x2="890" y2="180" stroke="#f0392a" stroke-width="3.0" stroke-linecap="round"/>
<line x1="890" y1="700" x2="870" y2="700" stroke="#f0392a" stroke-width="3.0" stroke-linecap="round"/>
<line x1="890" y1="700" x2="890" y2="630" stroke="#f0392a" stroke-width="3.0" stroke-linecap="round"/>
<line x1="870" y1="700" x2="870" y2="680" stroke="#f0392a" stroke-width="3.0" stroke-linecap="round"/>
<line x1="870" y1="650" x2="870" y2="430" stroke="#5a1816" stroke-width="3.0" stroke-linecap="round"/>
<line x1="830" y1="680" x2="830" y2="700" stroke="#f0392a" stroke-width="3.0" stroke-linecap="round"/>
<line x1="830" y1="650" x2="830" y2="240" stroke="#5a1816" stroke-width="3.0" stroke-linecap="round"/>
<line x1="850" y1="700" x2="850" y2="640" stroke="#f0392a" stroke-width="3.0" stroke-linecap="round"/>
<line x1="850" y1="700" x2="830" y2="700" stroke="#f0392a" stroke-width="3.0" stroke-linecap="round"/>
<line x1="830" y1="120" x2="830" y2="190" stroke="#5a1816" stroke-width="3.0" stroke-linecap="round"/>
<line x1="870" y1="120" x2="870" y2="280" stroke="#5a1816" stroke-width="3.0" stroke-linecap="round"/>
<line x1="660" y1="620" x2="710" y2="620" stroke="#5a1816" stroke-width="3.0" stroke-linecap="round"/>
<line x1="660" y1="570" x2="710" y2="570" stroke="#5a1816" stroke-width="3.0" stroke-linecap="round"/>
<line x1="660" y1="520" x2="710" y2="520" stroke="#5a1816" stroke-width="3.0" stroke-linecap="round"/>
<line x1="660" y1="470" x2="710" y2="470" stroke="#5a1816" stroke-width="3.0" stroke-linecap="round"/>
<line x1="660" y1="420" x2="710" y2="420" stroke="#5a1816" stroke-width="3.0" stroke-linecap="round"/>
<line x1="660" y1="370" x2="710" y2="370" stroke="#5a1816" stroke-width="3.0" stroke-linecap="round"/>
<line x1="660" y1="320" x2="710" y2="320" stroke="#5a1816" stroke-width="3.0" stroke-linecap="round"/>
<line x1="660" y1="270" x2="710" y2="270" stroke="#5a1816" stroke-width="3.0" stroke-linecap="round"/>
<line x1="660" y1="220" x2="710" y2="220" stroke="#5a1816" stroke-width="3.0" stroke-linecap="round"/>
<line x1="660" y1="170" x2="710" y2="170" stroke="#5a1816" stroke-width="3.0" stroke-linecap="round"/>
<line x1="750" y1="280" x2="910" y2="280" stroke="#f0392a" stroke-width="3.0" stroke-linecap="round"/>
<line x1="750" y1="290" x2="950" y2="290" stroke="#f0392a" stroke-width="3.0" stroke-linecap="round"/>
<line x1="750" y1="260" x2="870" y2="260" stroke="#5a1816" stroke-width="3.0" stroke-linecap="round"/>
<line x1="750" y1="250" x2="850" y2="250" stroke="#f0392a" stroke-width="3.0" stroke-linecap="round"/>
<line x1="750" y1="230" x2="930" y2="230" stroke="#5a1816" stroke-width="3.0" stroke-linecap="round"/>
<line x1="750" y1="240" x2="970" y2="240" stroke="#5a1816" stroke-width="3.0" stroke-linecap="round"/>
<line x1="750" y1="210" x2="890" y2="210" stroke="#f0392a" stroke-width="3.0" stroke-linecap="round"/>
<line x1="750" y1="200" x2="830" y2="200" stroke="#5a1816" stroke-width="3.0" stroke-linecap="round"/>
<line x1="750" y1="180" x2="930" y2="180" stroke="#5a1816" stroke-width="3.0" stroke-linecap="round"/>
<line x1="750" y1="190" x2="950" y2="190" stroke="#f0392a" stroke-width="3.0" stroke-linecap="round"/>
<line x1="750" y1="160" x2="890" y2="160" stroke="#f0392a" stroke-width="3.0" stroke-linecap="round"/>
<line x1="750" y1="150" x2="830" y2="150" stroke="#5a1816" stroke-width="3.0" stroke-linecap="round"/>
<line x1="750" y1="330" x2="910" y2="330" stroke="#f0392a" stroke-width="3.0" stroke-linecap="round"/>
<line x1="750" y1="340" x2="970" y2="340" stroke="#5a1816" stroke-width="3.0" stroke-linecap="round"/>
<line x1="750" y1="310" x2="870" y2="310" stroke="#5a1816" stroke-width="3.0" stroke-linecap="round"/>
<line x1="750" y1="300" x2="850" y2="300" stroke="#f0392a" stroke-width="3.0" stroke-linecap="round"/>
<line x1="750" y1="480" x2="910" y2="480" stroke="#f0392a" stroke-width="3.0" stroke-linecap="round"/>
<line x1="750" y1="490" x2="950" y2="490" stroke="#f0392a" stroke-width="3.0" stroke-linecap="round"/>
<line x1="750" y1="460" x2="890" y2="460" stroke="#f0392a" stroke-width="3.0" stroke-linecap="round"/>
<line x1="750" y1="450" x2="850" y2="450" stroke="#f0392a" stroke-width="3.0" stroke-linecap="round"/>
<line x1="750" y1="380" x2="930" y2="380" stroke="#5a1816" stroke-width="3.0" stroke-linecap="round"/>
<line x1="750" y1="390" x2="950" y2="390" stroke="#f0392a" stroke-width="3.0" stroke-linecap="round"/>
<line x1="750" y1="360" x2="870" y2="360" stroke="#5a1816" stroke-width="3.0" stroke-linecap="round"/>
<line x1="750" y1="350" x2="850" y2="350" stroke="#f0392a" stroke-width="3.0" stroke-linecap="round"/>
<line x1="750" y1="530" x2="910" y2="530" stroke="#f0392a" stroke-width="3.0" stroke-linecap="round"/>
<line x1="750" y1="540" x2="970" y2="540" stroke="#5a1816" stroke-width="3.0" stroke-linecap="round"/>
<line x1="750" y1="510" x2="890" y2="510" stroke="#f0392a" stroke-width="3.0" stroke-linecap="round"/>
<line x1="750" y1="500" x2="850" y2="500" stroke="#f0392a" stroke-width="3.0" stroke-linecap="round"/>
<line x1="750" y1="580" x2="930" y2="580" stroke="#5a1816" stroke-width="3.0" stroke-linecap="round"/>
<line x1="750" y1="590" x2="950" y2="590" stroke="#f0392a" stroke-width="3.0" stroke-linecap="round"/>
<line x1="750" y1="560" x2="890" y2="560" stroke="#f0392a" stroke-width="3.0" stroke-linecap="round"/>
<line x1="750" y1="550" x2="850" y2="550" stroke="#f0392a" stroke-width="3.0" stroke-linecap="round"/>
<line x1="750" y1="630" x2="930" y2="630" stroke="#5a1816" stroke-width="3.0" stroke-linecap="round"/>
<line x1="750" y1="640" x2="970" y2="640" stroke="#5a1816" stroke-width="3.0" stroke-linecap="round"/>
<line x1="750" y1="610" x2="890" y2="610" stroke="#f0392a" stroke-width="3.0" stroke-linecap="round"/>
<line x1="750" y1="600" x2="850" y2="600" stroke="#f0392a" stroke-width="3.0" stroke-linecap="round"/>
<line x1="850" y1="640" x2="850" y2="590" stroke="#f0392a" stroke-width="3.0" stroke-linecap="round"/>
<line x1="890" y1="630" x2="890" y2="580" stroke="#f0392a" stroke-width="3.0" stroke-linecap="round"/>
<line x1="930" y1="610" x2="930" y2="560" stroke="#5a1816" stroke-width="3.0" stroke-linecap="round"/>
<line x1="970" y1="600" x2="970" y2="500" stroke="#5a1816" stroke-width="3.0" stroke-linecap="round"/>
<line x1="850" y1="590" x2="850" y2="540" stroke="#f0392a" stroke-width="3.0" stroke-linecap="round"/>
<line x1="890" y1="580" x2="890" y2="530" stroke="#f0392a" stroke-width="3.0" stroke-linecap="round"/>
<line x1="930" y1="560" x2="930" y2="410" stroke="#5a1816" stroke-width="3.0" stroke-linecap="round"/>
<line x1="950" y1="550" x2="950" y2="450" stroke="#f0392a" stroke-width="3.0" stroke-linecap="round"/>
<line x1="850" y1="540" x2="850" y2="490" stroke="#f0392a" stroke-width="3.0" stroke-linecap="round"/>
<line x1="890" y1="530" x2="890" y2="480" stroke="#f0392a" stroke-width="3.0" stroke-linecap="round"/>
<line x1="910" y1="510" x2="910" y2="460" stroke="#f0392a" stroke-width="3.0" stroke-linecap="round"/>
<line x1="910" y1="510" x2="910" y2="650" stroke="#f0392a" stroke-width="3.0" stroke-linecap="round"/>
<line x1="970" y1="500" x2="970" y2="400" stroke="#5a1816" stroke-width="3.0" stroke-linecap="round"/>
<line x1="850" y1="490" x2="850" y2="440" stroke="#f0392a" stroke-width="3.0" stroke-linecap="round"/>
<line x1="890" y1="480" x2="890" y2="230" stroke="#f0392a" stroke-width="3.0" stroke-linecap="round"/>
<line x1="910" y1="460" x2="910" y2="310" stroke="#f0392a" stroke-width="3.0" stroke-linecap="round"/>
<line x1="950" y1="450" x2="950" y2="350" stroke="#f0392a" stroke-width="3.0" stroke-linecap="round"/>
<line x1="750" y1="430" x2="930" y2="430" stroke="#5a1816" stroke-width="3.0" stroke-linecap="round"/>
<line x1="750" y1="440" x2="970" y2="440" stroke="#5a1816" stroke-width="3.0" stroke-linecap="round"/>
<line x1="750" y1="410" x2="870" y2="410" stroke="#5a1816" stroke-width="3.0" stroke-linecap="round"/>
<line x1="750" y1="400" x2="850" y2="400" stroke="#f0392a" stroke-width="3.0" stroke-linecap="round"/>
<line x1="850" y1="440" x2="850" y2="390" stroke="#f0392a" stroke-width="3.0" stroke-linecap="round"/>
<line x1="870" y1="430" x2="870" y2="380" stroke="#5a1816" stroke-width="3.0" stroke-linecap="round"/>
<line x1="930" y1="410" x2="930" y2="360" stroke="#5a1816" stroke-width="3.0" stroke-linecap="round"/>
<line x1="970" y1="400" x2="970" y2="300" stroke="#5a1816" stroke-width="3.0" stroke-linecap="round"/>
<line x1="850" y1="390" x2="850" y2="340" stroke="#f0392a" stroke-width="3.0" stroke-linecap="round"/>
<line x1="870" y1="380" x2="870" y2="330" stroke="#5a1816" stroke-width="3.0" stroke-linecap="round"/>
<line x1="930" y1="360" x2="930" y2="210" stroke="#5a1816" stroke-width="3.0" stroke-linecap="round"/>
<line x1="950" y1="350" x2="950" y2="250" stroke="#f0392a" stroke-width="3.0" stroke-linecap="round"/>
<line x1="850" y1="340" x2="850" y2="290" stroke="#f0392a" stroke-width="3.0" stroke-linecap="round"/>
<line x1="870" y1="330" x2="870" y2="280" stroke="#5a1816" stroke-width="3.0" stroke-linecap="round"/>
<line x1="910" y1="310" x2="910" y2="260" stroke="#f0392a" stroke-width="3.0" stroke-linecap="round"/>
<line x1="970" y1="300" x2="970" y2="200" stroke="#5a1816" stroke-width="3.0" stroke-linecap="round"/>
<line x1="950" y1="250" x2="950" y2="150" stroke="#f0392a" stroke-width="3.0" stroke-linecap="round"/>
<line x1="830" y1="240" x2="830" y2="190" stroke="#5a1816" stroke-width="3.0" stroke-linecap="round"/>
<line x1="890" y1="230" x2="890" y2="180" stroke="#f0392a" stroke-width="3.0" stroke-linecap="round"/>
<line x1="930" y1="210" x2="930" y2="160" stroke="#5a1816" stroke-width="3.0" stroke-linecap="round"/>
<circle cx="930" cy="730" r="3.1500000000000004" fill="#5a1816"/>
<circle cx="970" cy="730" r="3.1500000000000004" fill="#5a1816"/>
<circle cx="930" cy="120" r="3.1500000000000004" fill="#5a1816"/>
<circle cx="970" cy="120" r="3.1500000000000004" fill="#5a1816"/>
<circle cx="970" cy="700" r="3.1500000000000004" fill="#5a1816"/>
<circle cx="930" cy="700" r="3.1500000000000004" fill="#5a1816"/>
<circle cx="910" cy="120" r="3.1500000000000004" fill="#f0392a"/>
<circle cx="950" cy="120" r="3.1500000000000004" fill="#f0392a"/>
<circle cx="850" cy="730" r="3.1500000000000004" fill="#f0392a"/>
<circle cx="890" cy="730" r="3.1500000000000004" fill="#f0392a"/>
<circle cx="850" cy="120" r="3.1500000000000004" fill="#f0392a"/>
<circle cx="890" cy="120" r="3.1500000000000004" fill="#f0392a"/>
<circle cx="890" cy="700" r="3.1500000000000004" fill="#f0392a"/>
<circle cx="850" cy="700" r="3.1500000000000004" fill="#f0392a"/>
<circle cx="830" cy="120" r="3.1500000000000004" fill="#5a1816"/>
<circle cx="870" cy="120" r="3.1500000000000004" fill="#5a1816"/>
<circle cx="660" cy="620" r="3.1500000000000004" fill="#5a1816"/>
<circle cx="660" cy="570" r="3.1500000000000004" fill="#5a1816"/>
<circle cx="660" cy="520" r="3.1500000000000004" fill="#5a1816"/>
<circle cx="660" cy="470" r="3.1500000000000004" fill="#5a1816"/>
<circle cx="660" cy="420" r="3.1500000000000004" fill="#5a1816"/>
<circle cx="660" cy="370" r="3.1500000000000004" fill="#5a1816"/>
<circle cx="660" cy="320" r="3.1500000000000004" fill="#5a1816"/>
<circle cx="660" cy="270" r="3.1500000000000004" fill="#5a1816"/>
<circle cx="660" cy="220" r="3.1500000000000004" fill="#5a1816"/>
<circle cx="660" cy="170" r="3.1500000000000004" fill="#5a1816"/>
<circle cx="910" cy="280" r="3.1500000000000004" fill="#f0392a"/>
<circle cx="950" cy="290" r="3.1500000000000004" fill="#f0392a"/>
<circle cx="870" cy="260" r="3.1500000000000004" fill="#5a1816"/>
<circle cx="850" cy="250" r="3.1500000000000004" fill="#f0392a"/>
<circle cx="930" cy="230" r="3.1500000000000004" fill="#5a1816"/>
<circle cx="970" cy="240" r="3.1500000000000004" fill="#5a1816"/>
<circle cx="890" cy="210" r="3.1500000000000004" fill="#f0392a"/>
<circle cx="830" cy="200" r="3.1500000000000004" fill="#5a1816"/>
<circle cx="930" cy="180" r="3.1500000000000004" fill="#5a1816"/>
<circle cx="950" cy="190" r="3.1500000000000004" fill="#f0392a"/>
<circle cx="890" cy="160" r="3.1500000000000004" fill="#f0392a"/>
<circle cx="830" cy="150" r="3.1500000000000004" fill="#5a1816"/>
<circle cx="910" cy="330" r="3.1500000000000004" fill="#f0392a"/>
<circle cx="970" cy="340" r="3.1500000000000004" fill="#5a1816"/>
<circle cx="870" cy="310" r="3.1500000000000004" fill="#5a1816"/>
<circle cx="850" cy="300" r="3.1500000000000004" fill="#f0392a"/>
<circle cx="910" cy="480" r="3.1500000000000004" fill="#f0392a"/>
<circle cx="950" cy="490" r="3.1500000000000004" fill="#f0392a"/>
<circle cx="890" cy="460" r="3.1500000000000004" fill="#f0392a"/>
<circle cx="850" cy="450" r="3.1500000000000004" fill="#f0392a"/>
<circle cx="930" cy="380" r="3.1500000000000004" fill="#5a1816"/>
<circle cx="950" cy="390" r="3.1500000000000004" fill="#f0392a"/>
<circle cx="870" cy="360" r="3.1500000000000004" fill="#5a1816"/>
<circle cx="850" cy="350" r="3.1500000000000004" fill="#f0392a"/>
<circle cx="910" cy="530" r="3.1500000000000004" fill="#f0392a"/>
<circle cx="970" cy="540" r="3.1500000000000004" fill="#5a1816"/>
<circle cx="890" cy="510" r="3.1500000000000004" fill="#f0392a"/>
<circle cx="850" cy="500" r="3.1500000000000004" fill="#f0392a"/>
<circle cx="930" cy="580" r="3.1500000000000004" fill="#5a1816"/>
<circle cx="950" cy="590" r="3.1500000000000004" fill="#f0392a"/>
<circle cx="890" cy="560" r="3.1500000000000004" fill="#f0392a"/>
<circle cx="850" cy="550" r="3.1500000000000004" fill="#f0392a"/>
<circle cx="930" cy="630" r="3.1500000000000004" fill="#5a1816"/>
<circle cx="970" cy="640" r="3.1500000000000004" fill="#5a1816"/>
<circle cx="890" cy="610" r="3.1500000000000004" fill="#f0392a"/>
<circle cx="850" cy="600" r="3.1500000000000004" fill="#f0392a"/>
<circle cx="930" cy="430" r="3.1500000000000004" fill="#5a1816"/>
<circle cx="970" cy="440" r="3.1500000000000004" fill="#5a1816"/>
<circle cx="870" cy="410" r="3.1500000000000004" fill="#5a1816"/>
<circle cx="850" cy="400" r="3.1500000000000004" fill="#f0392a"/>
<rect x="920" y="730" width="20" height="20" fill="#ffffff" stroke="#30231e" stroke-width="3.2"/><text x="930" y="745" font-family="Fira Code, ui-monospace, monospace" font-size="14" font-weight="600" text-anchor="middle" fill="#30231e">0</text>
<text x="930" y="768" font-family="ui-monospace,monospace" font-size="14" text-anchor="middle" fill="#30231e">B1</text>
<rect x="960" y="730" width="20" height="20" fill="#ffffff" stroke="#30231e" stroke-width="3.2"/><text x="970" y="745" font-family="Fira Code, ui-monospace, monospace" font-size="14" font-weight="600" text-anchor="middle" fill="#30231e">0</text>
<text x="970" y="768" font-family="ui-monospace,monospace" font-size="14" text-anchor="middle" fill="#30231e">B0</text>
<rect x="840" y="730" width="20" height="20" fill="#ffffff" stroke="#f0392a" stroke-width="3.2"/><text x="850" y="745" font-family="Fira Code, ui-monospace, monospace" font-size="14" font-weight="600" text-anchor="middle" fill="#f0392a">1</text>
<text x="850" y="768" font-family="ui-monospace,monospace" font-size="14" text-anchor="middle" fill="#30231e">B3</text>
<rect x="880" y="730" width="20" height="20" fill="#ffffff" stroke="#f0392a" stroke-width="3.2"/><text x="890" y="745" font-family="Fira Code, ui-monospace, monospace" font-size="14" font-weight="600" text-anchor="middle" fill="#f0392a">1</text>
<text x="890" y="768" font-family="ui-monospace,monospace" font-size="14" text-anchor="middle" fill="#30231e">B2</text>
<rect x="640" y="610" width="20" height="20" fill="#ffffff" stroke="#30231e" stroke-width="3.2"/><text x="650" y="625" font-family="Fira Code, ui-monospace, monospace" font-size="14" font-weight="600" text-anchor="middle" fill="#30231e">0</text>
<text x="628" y="625" font-family="ui-monospace,monospace" font-size="14" text-anchor="end" fill="#30231e">L0</text>
<rect x="640" y="560" width="20" height="20" fill="#ffffff" stroke="#30231e" stroke-width="3.2"/><text x="650" y="575" font-family="Fira Code, ui-monospace, monospace" font-size="14" font-weight="600" text-anchor="middle" fill="#30231e">0</text>
<text x="628" y="575" font-family="ui-monospace,monospace" font-size="14" text-anchor="end" fill="#30231e">L1</text>
<rect x="640" y="510" width="20" height="20" fill="#ffffff" stroke="#30231e" stroke-width="3.2"/><text x="650" y="525" font-family="Fira Code, ui-monospace, monospace" font-size="14" font-weight="600" text-anchor="middle" fill="#30231e">0</text>
<text x="628" y="525" font-family="ui-monospace,monospace" font-size="14" text-anchor="end" fill="#30231e">L2</text>
<rect x="640" y="460" width="20" height="20" fill="#ffffff" stroke="#30231e" stroke-width="3.2"/><text x="650" y="475" font-family="Fira Code, ui-monospace, monospace" font-size="14" font-weight="600" text-anchor="middle" fill="#30231e">0</text>
<text x="628" y="475" font-family="ui-monospace,monospace" font-size="14" text-anchor="end" fill="#30231e">L3</text>
<rect x="640" y="410" width="20" height="20" fill="#ffffff" stroke="#30231e" stroke-width="3.2"/><text x="650" y="425" font-family="Fira Code, ui-monospace, monospace" font-size="14" font-weight="600" text-anchor="middle" fill="#30231e">0</text>
<text x="628" y="425" font-family="ui-monospace,monospace" font-size="14" text-anchor="end" fill="#30231e">L4</text>
<rect x="640" y="360" width="20" height="20" fill="#ffffff" stroke="#30231e" stroke-width="3.2"/><text x="650" y="375" font-family="Fira Code, ui-monospace, monospace" font-size="14" font-weight="600" text-anchor="middle" fill="#30231e">0</text>
<text x="628" y="375" font-family="ui-monospace,monospace" font-size="14" text-anchor="end" fill="#30231e">L5</text>
<rect x="640" y="310" width="20" height="20" fill="#ffffff" stroke="#30231e" stroke-width="3.2"/><text x="650" y="325" font-family="Fira Code, ui-monospace, monospace" font-size="14" font-weight="600" text-anchor="middle" fill="#30231e">0</text>
<text x="628" y="325" font-family="ui-monospace,monospace" font-size="14" text-anchor="end" fill="#30231e">L6</text>
<rect x="640" y="260" width="20" height="20" fill="#ffffff" stroke="#30231e" stroke-width="3.2"/><text x="650" y="275" font-family="Fira Code, ui-monospace, monospace" font-size="14" font-weight="600" text-anchor="middle" fill="#30231e">0</text>
<text x="628" y="275" font-family="ui-monospace,monospace" font-size="14" text-anchor="end" fill="#30231e">L7</text>
<rect x="640" y="210" width="20" height="20" fill="#ffffff" stroke="#30231e" stroke-width="3.2"/><text x="650" y="225" font-family="Fira Code, ui-monospace, monospace" font-size="14" font-weight="600" text-anchor="middle" fill="#30231e">0</text>
<text x="628" y="225" font-family="ui-monospace,monospace" font-size="14" text-anchor="end" fill="#30231e">L8</text>
<rect x="640" y="160" width="20" height="20" fill="#ffffff" stroke="#30231e" stroke-width="3.2"/><text x="650" y="175" font-family="Fira Code, ui-monospace, monospace" font-size="14" font-weight="600" text-anchor="middle" fill="#30231e">0</text>
<text x="628" y="175" font-family="ui-monospace,monospace" font-size="14" text-anchor="end" fill="#30231e">L9</text>
<line x1="950" y1="650" x2="950" y2="660" stroke="#f0392a" stroke-width="3.0" stroke-linecap="round"/>
<line x1="950" y1="680" x2="950" y2="670" stroke="#5a1816" stroke-width="3.0" stroke-linecap="round"/>
<g transform="translate(950,670) rotate(270)"><path d="M -9 -11 L 12 0 L -9 11 Z" fill="#f0d6d4" stroke="#30231e" stroke-width="3.2" stroke-linecap="square" stroke-linejoin="miter"/><circle cx="15" cy="0" r="4" fill="#f5f1ea" stroke="#30231e" stroke-width="3.2"/></g>
<line x1="870" y1="650" x2="870" y2="660" stroke="#5a1816" stroke-width="3.0" stroke-linecap="round"/>
<line x1="870" y1="680" x2="870" y2="670" stroke="#f0392a" stroke-width="3.0" stroke-linecap="round"/>
<g transform="translate(870,670) rotate(270)"><path d="M -9 -11 L 12 0 L -9 11 Z" fill="#f0d6d4" stroke="#30231e" stroke-width="3.2" stroke-linecap="square" stroke-linejoin="miter"/><circle cx="15" cy="0" r="4" fill="#f5f1ea" stroke="#30231e" stroke-width="3.2"/></g>
<line x1="830" y1="650" x2="830" y2="660" stroke="#5a1816" stroke-width="3.0" stroke-linecap="round"/>
<line x1="830" y1="680" x2="830" y2="670" stroke="#f0392a" stroke-width="3.0" stroke-linecap="round"/>
<g transform="translate(830,670) rotate(270)"><path d="M -9 -11 L 12 0 L -9 11 Z" fill="#f0d6d4" stroke="#30231e" stroke-width="3.2" stroke-linecap="square" stroke-linejoin="miter"/><circle cx="15" cy="0" r="4" fill="#f5f1ea" stroke="#30231e" stroke-width="3.2"/></g>
<line x1="910" y1="650" x2="910" y2="660" stroke="#f0392a" stroke-width="3.0" stroke-linecap="round"/>
<line x1="910" y1="680" x2="910" y2="670" stroke="#5a1816" stroke-width="3.0" stroke-linecap="round"/>
<g transform="translate(910,670) rotate(270)"><path d="M -9 -11 L 12 0 L -9 11 Z" fill="#f0d6d4" stroke="#30231e" stroke-width="3.2" stroke-linecap="square" stroke-linejoin="miter"/><circle cx="15" cy="0" r="4" fill="#f5f1ea" stroke="#30231e" stroke-width="3.2"/></g>
<line x1="750" y1="280" x2="740" y2="280" stroke="#f0392a" stroke-width="3.0" stroke-linecap="round"/>
<line x1="750" y1="290" x2="750" y2="280" stroke="#f0392a" stroke-width="3.0" stroke-linecap="round"/>
<line x1="750" y1="260" x2="740" y2="260" stroke="#5a1816" stroke-width="3.0" stroke-linecap="round"/>
<line x1="750" y1="250" x2="750" y2="260" stroke="#f0392a" stroke-width="3.0" stroke-linecap="round"/>
<line x1="710" y1="270" x2="720" y2="270" stroke="#5a1816" stroke-width="3.0" stroke-linecap="round"/>
<g transform="translate(740,270) rotate(180)"><path d="M -16 -19 Q -3 0 -16 19 Q 6 18 19 0 Q 6 -18 -16 -19 Z" fill="#ccdbe5" stroke="#30231e" stroke-width="3.2" stroke-linecap="square" stroke-linejoin="miter"/><circle cx="23" cy="0" r="4" fill="#f5f1ea" stroke="#30231e" stroke-width="3.2"/></g>
<line x1="750" y1="230" x2="740" y2="230" stroke="#5a1816" stroke-width="3.0" stroke-linecap="round"/>
<line x1="750" y1="240" x2="750" y2="230" stroke="#5a1816" stroke-width="3.0" stroke-linecap="round"/>
<line x1="750" y1="210" x2="740" y2="210" stroke="#f0392a" stroke-width="3.0" stroke-linecap="round"/>
<line x1="750" y1="200" x2="750" y2="210" stroke="#5a1816" stroke-width="3.0" stroke-linecap="round"/>
<line x1="710" y1="220" x2="720" y2="220" stroke="#5a1816" stroke-width="3.0" stroke-linecap="round"/>
<g transform="translate(740,220) rotate(180)"><path d="M -16 -19 Q -3 0 -16 19 Q 6 18 19 0 Q 6 -18 -16 -19 Z" fill="#ccdbe5" stroke="#30231e" stroke-width="3.2" stroke-linecap="square" stroke-linejoin="miter"/><circle cx="23" cy="0" r="4" fill="#f5f1ea" stroke="#30231e" stroke-width="3.2"/></g>
<line x1="750" y1="180" x2="740" y2="180" stroke="#5a1816" stroke-width="3.0" stroke-linecap="round"/>
<line x1="750" y1="190" x2="750" y2="180" stroke="#f0392a" stroke-width="3.0" stroke-linecap="round"/>
<line x1="750" y1="160" x2="740" y2="160" stroke="#f0392a" stroke-width="3.0" stroke-linecap="round"/>
<line x1="750" y1="150" x2="750" y2="160" stroke="#5a1816" stroke-width="3.0" stroke-linecap="round"/>
<line x1="710" y1="170" x2="720" y2="170" stroke="#5a1816" stroke-width="3.0" stroke-linecap="round"/>
<g transform="translate(740,170) rotate(180)"><path d="M -16 -19 Q -3 0 -16 19 Q 6 18 19 0 Q 6 -18 -16 -19 Z" fill="#ccdbe5" stroke="#30231e" stroke-width="3.2" stroke-linecap="square" stroke-linejoin="miter"/><circle cx="23" cy="0" r="4" fill="#f5f1ea" stroke="#30231e" stroke-width="3.2"/></g>
<line x1="750" y1="330" x2="740" y2="330" stroke="#f0392a" stroke-width="3.0" stroke-linecap="round"/>
<line x1="750" y1="340" x2="750" y2="330" stroke="#5a1816" stroke-width="3.0" stroke-linecap="round"/>
<line x1="750" y1="310" x2="740" y2="310" stroke="#5a1816" stroke-width="3.0" stroke-linecap="round"/>
<line x1="750" y1="300" x2="750" y2="310" stroke="#f0392a" stroke-width="3.0" stroke-linecap="round"/>
<line x1="710" y1="320" x2="720" y2="320" stroke="#5a1816" stroke-width="3.0" stroke-linecap="round"/>
<g transform="translate(740,320) rotate(180)"><path d="M -16 -19 Q -3 0 -16 19 Q 6 18 19 0 Q 6 -18 -16 -19 Z" fill="#ccdbe5" stroke="#30231e" stroke-width="3.2" stroke-linecap="square" stroke-linejoin="miter"/><circle cx="23" cy="0" r="4" fill="#f5f1ea" stroke="#30231e" stroke-width="3.2"/></g>
<line x1="750" y1="480" x2="740" y2="480" stroke="#f0392a" stroke-width="3.0" stroke-linecap="round"/>
<line x1="750" y1="490" x2="750" y2="480" stroke="#f0392a" stroke-width="3.0" stroke-linecap="round"/>
<line x1="750" y1="460" x2="740" y2="460" stroke="#f0392a" stroke-width="3.0" stroke-linecap="round"/>
<line x1="750" y1="450" x2="750" y2="460" stroke="#f0392a" stroke-width="3.0" stroke-linecap="round"/>
<line x1="710" y1="470" x2="720" y2="470" stroke="#5a1816" stroke-width="3.0" stroke-linecap="round"/>
<g transform="translate(740,470) rotate(180)"><path d="M -16 -19 Q -3 0 -16 19 Q 6 18 19 0 Q 6 -18 -16 -19 Z" fill="#ccdbe5" stroke="#30231e" stroke-width="3.2" stroke-linecap="square" stroke-linejoin="miter"/><circle cx="23" cy="0" r="4" fill="#f5f1ea" stroke="#30231e" stroke-width="3.2"/></g>
<line x1="750" y1="380" x2="740" y2="380" stroke="#5a1816" stroke-width="3.0" stroke-linecap="round"/>
<line x1="750" y1="390" x2="750" y2="380" stroke="#f0392a" stroke-width="3.0" stroke-linecap="round"/>
<line x1="750" y1="360" x2="740" y2="360" stroke="#5a1816" stroke-width="3.0" stroke-linecap="round"/>
<line x1="750" y1="350" x2="750" y2="360" stroke="#f0392a" stroke-width="3.0" stroke-linecap="round"/>
<line x1="710" y1="370" x2="720" y2="370" stroke="#5a1816" stroke-width="3.0" stroke-linecap="round"/>
<g transform="translate(740,370) rotate(180)"><path d="M -16 -19 Q -3 0 -16 19 Q 6 18 19 0 Q 6 -18 -16 -19 Z" fill="#ccdbe5" stroke="#30231e" stroke-width="3.2" stroke-linecap="square" stroke-linejoin="miter"/><circle cx="23" cy="0" r="4" fill="#f5f1ea" stroke="#30231e" stroke-width="3.2"/></g>
<line x1="750" y1="530" x2="740" y2="530" stroke="#f0392a" stroke-width="3.0" stroke-linecap="round"/>
<line x1="750" y1="540" x2="750" y2="530" stroke="#5a1816" stroke-width="3.0" stroke-linecap="round"/>
<line x1="750" y1="510" x2="740" y2="510" stroke="#f0392a" stroke-width="3.0" stroke-linecap="round"/>
<line x1="750" y1="500" x2="750" y2="510" stroke="#f0392a" stroke-width="3.0" stroke-linecap="round"/>
<line x1="710" y1="520" x2="720" y2="520" stroke="#5a1816" stroke-width="3.0" stroke-linecap="round"/>
<g transform="translate(740,520) rotate(180)"><path d="M -16 -19 Q -3 0 -16 19 Q 6 18 19 0 Q 6 -18 -16 -19 Z" fill="#ccdbe5" stroke="#30231e" stroke-width="3.2" stroke-linecap="square" stroke-linejoin="miter"/><circle cx="23" cy="0" r="4" fill="#f5f1ea" stroke="#30231e" stroke-width="3.2"/></g>
<line x1="750" y1="580" x2="740" y2="580" stroke="#5a1816" stroke-width="3.0" stroke-linecap="round"/>
<line x1="750" y1="590" x2="750" y2="580" stroke="#f0392a" stroke-width="3.0" stroke-linecap="round"/>
<line x1="750" y1="560" x2="740" y2="560" stroke="#f0392a" stroke-width="3.0" stroke-linecap="round"/>
<line x1="750" y1="550" x2="750" y2="560" stroke="#f0392a" stroke-width="3.0" stroke-linecap="round"/>
<line x1="710" y1="570" x2="720" y2="570" stroke="#5a1816" stroke-width="3.0" stroke-linecap="round"/>
<g transform="translate(740,570) rotate(180)"><path d="M -16 -19 Q -3 0 -16 19 Q 6 18 19 0 Q 6 -18 -16 -19 Z" fill="#ccdbe5" stroke="#30231e" stroke-width="3.2" stroke-linecap="square" stroke-linejoin="miter"/><circle cx="23" cy="0" r="4" fill="#f5f1ea" stroke="#30231e" stroke-width="3.2"/></g>
<line x1="750" y1="630" x2="740" y2="630" stroke="#5a1816" stroke-width="3.0" stroke-linecap="round"/>
<line x1="750" y1="640" x2="750" y2="630" stroke="#5a1816" stroke-width="3.0" stroke-linecap="round"/>
<line x1="750" y1="610" x2="740" y2="610" stroke="#f0392a" stroke-width="3.0" stroke-linecap="round"/>
<line x1="750" y1="600" x2="750" y2="610" stroke="#f0392a" stroke-width="3.0" stroke-linecap="round"/>
<line x1="710" y1="620" x2="720" y2="620" stroke="#5a1816" stroke-width="3.0" stroke-linecap="round"/>
<g transform="translate(740,620) rotate(180)"><path d="M -16 -19 Q -3 0 -16 19 Q 6 18 19 0 Q 6 -18 -16 -19 Z" fill="#ccdbe5" stroke="#30231e" stroke-width="3.2" stroke-linecap="square" stroke-linejoin="miter"/><circle cx="23" cy="0" r="4" fill="#f5f1ea" stroke="#30231e" stroke-width="3.2"/></g>
<line x1="750" y1="430" x2="740" y2="430" stroke="#5a1816" stroke-width="3.0" stroke-linecap="round"/>
<line x1="750" y1="440" x2="750" y2="430" stroke="#5a1816" stroke-width="3.0" stroke-linecap="round"/>
<line x1="750" y1="410" x2="740" y2="410" stroke="#5a1816" stroke-width="3.0" stroke-linecap="round"/>
<line x1="750" y1="400" x2="750" y2="410" stroke="#f0392a" stroke-width="3.0" stroke-linecap="round"/>
<line x1="710" y1="420" x2="720" y2="420" stroke="#5a1816" stroke-width="3.0" stroke-linecap="round"/>
<g transform="translate(740,420) rotate(180)"><path d="M -16 -19 Q -3 0 -16 19 Q 6 18 19 0 Q 6 -18 -16 -19 Z" fill="#ccdbe5" stroke="#30231e" stroke-width="3.2" stroke-linecap="square" stroke-linejoin="miter"/><circle cx="23" cy="0" r="4" fill="#f5f1ea" stroke="#30231e" stroke-width="3.2"/></g>
</g>
</svg>
